<svg width="20" height="26" viewBox="0 0 20 26" fill="none" xmlns="http://www.w3.org/2000/svg">
<mask id="path-1-inside-1_238_26130" fill="white">
<path d="M16.9921 0H2.99861C2.20333 0 1.44062 0.293494 0.878272 0.815917C0.315924 1.33834 0 2.0469 0 2.78571V23.2143C0 23.9531 0.315924 24.6617 0.878272 25.1841C1.44062 25.7065 2.20333 26 2.99861 26H16.9921C17.7874 26 18.5501 25.7065 19.1124 25.1841C19.6748 24.6617 19.9907 23.9531 19.9907 23.2143V2.78571C19.9907 2.0469 19.6748 1.33834 19.1124 0.815917C18.5501 0.293494 17.7874 0 16.9921 0ZM17.9916 23.2143C17.9916 23.4606 17.8863 23.6967 17.6989 23.8709C17.5114 24.045 17.2572 24.1429 16.9921 24.1429H2.99861C2.73351 24.1429 2.47928 24.045 2.29183 23.8709C2.10438 23.6967 1.99907 23.4606 1.99907 23.2143V2.78571C1.99907 2.53944 2.10438 2.30326 2.29183 2.12912C2.47928 1.95497 2.73351 1.85714 2.99861 1.85714H16.9921C17.2572 1.85714 17.5114 1.95497 17.6989 2.12912C17.8863 2.30326 17.9916 2.53944 17.9916 2.78571V23.2143Z"/>
</mask>
<path d="M2.99861 0V-2V0ZM2.99861 26V28V26ZM16.9921 26V28V26ZM19.9907 23.2143H21.9907H19.9907ZM19.9907 2.78571H21.9907H19.9907ZM1.99907 23.2143H3.99907H1.99907ZM1.99907 2.78571H3.99907H1.99907ZM2.99861 1.85714V3.85714V1.85714ZM16.9921 -2H2.99861V2H16.9921V-2ZM2.99861 -2C1.71848 -2 0.463837 -1.52894 -0.48297 -0.649355L2.23951 2.28119C2.4174 2.11593 2.68818 2 2.99861 2V-2ZM-0.48297 -0.649355C-1.43474 0.234847 -2 1.46695 -2 2.78571H2C2 2.62685 2.06659 2.44183 2.23951 2.28119L-0.48297 -0.649355ZM-2 2.78571V23.2143H2V2.78571H-2ZM-2 23.2143C-2 24.5331 -1.43475 25.7652 -0.48297 26.6494L2.23951 23.7188C2.06659 23.5582 2 23.3732 2 23.2143H-2ZM-0.48297 26.6494C0.463838 27.5289 1.71848 28 2.99861 28V24C2.68818 24 2.4174 23.8841 2.23951 23.7188L-0.48297 26.6494ZM2.99861 28H16.9921V24H2.99861V28ZM16.9921 28C18.2722 28 19.5269 27.5289 20.4737 26.6494L17.7512 23.7188C17.5733 23.8841 17.3025 24 16.9921 24V28ZM20.4737 26.6494C21.4255 25.7652 21.9907 24.5331 21.9907 23.2143H17.9907C17.9907 23.3732 17.9241 23.5582 17.7512 23.7188L20.4737 26.6494ZM21.9907 23.2143V2.78571H17.9907V23.2143H21.9907ZM21.9907 2.78571C21.9907 1.46695 21.4255 0.234847 20.4737 -0.649355L17.7512 2.28119C17.9241 2.44183 17.9907 2.62684 17.9907 2.78571H21.9907ZM20.4737 -0.649355C19.5269 -1.52894 18.2722 -2 16.9921 -2V2C17.3025 2 17.5733 2.11593 17.7512 2.28119L20.4737 -0.649355ZM15.9916 23.2143C15.9916 22.8806 16.1357 22.5933 16.3376 22.4056L19.0601 25.3362C19.637 24.8002 19.9916 24.0405 19.9916 23.2143H15.9916ZM16.3376 22.4056C16.5347 22.2226 16.7724 22.1429 16.9921 22.1429V26.1429C17.742 26.1429 18.4882 25.8675 19.0601 25.3362L16.3376 22.4056ZM16.9921 22.1429H2.99861V26.1429H16.9921V22.1429ZM2.99861 22.1429C3.21836 22.1429 3.45606 22.2226 3.65307 22.4056L0.930587 25.3362C1.5025 25.8675 2.24867 26.1429 2.99861 26.1429V22.1429ZM3.65307 22.4056C3.85505 22.5933 3.99907 22.8806 3.99907 23.2143H-0.000928521C-0.000928521 24.0405 0.35371 24.8002 0.930587 25.3362L3.65307 22.4056ZM3.99907 23.2143V2.78571H-0.000928521V23.2143H3.99907ZM3.99907 2.78571C3.99907 3.11939 3.85505 3.40675 3.65307 3.59439L0.930587 0.663843C0.353712 1.19976 -0.000928521 1.95949 -0.000928521 2.78571H3.99907ZM3.65307 3.59439C3.45606 3.77741 3.21837 3.85714 2.99861 3.85714V-0.142857C2.24866 -0.142857 1.50249 0.13254 0.930587 0.663843L3.65307 3.59439ZM2.99861 3.85714H16.9921V-0.142857H2.99861V3.85714ZM16.9921 3.85714C16.7724 3.85714 16.5347 3.77741 16.3376 3.59439L19.0601 0.663843C18.4882 0.132538 17.7421 -0.142857 16.9921 -0.142857V3.85714ZM16.3376 3.59439C16.1357 3.40675 15.9916 3.11939 15.9916 2.78571H19.9916C19.9916 1.9595 19.637 1.19977 19.0601 0.663843L16.3376 3.59439ZM15.9916 2.78571V23.2143H19.9916V2.78571H15.9916Z" fill="white" mask="url(#path-1-inside-1_238_26130)"/>
<path d="M13.0133 11.0957L13.0299 11.1029L13.0133 11.0957Z" stroke="white" stroke-width="2"/>
<mask id="path-4-inside-2_238_26130" fill="white">
<path d="M3.99856 18.572H9.99577C10.2609 18.572 10.5151 18.4742 10.7026 18.3C10.89 18.1259 10.9953 17.8897 10.9953 17.6434C10.9953 17.3971 10.89 17.161 10.7026 16.9868C10.5151 16.8127 10.2609 16.7148 9.99577 16.7148H3.99856C3.73347 16.7148 3.47923 16.8127 3.29178 16.9868C3.10433 17.161 2.99902 17.3971 2.99902 17.6434C2.99902 17.8897 3.10433 18.1259 3.29178 18.3C3.47923 18.4742 3.73347 18.572 3.99856 18.572Z"/>
</mask>
<path d="M3.99856 20.572H9.99577V16.572H3.99856V20.572ZM9.99577 20.572C10.7457 20.572 11.4919 20.2966 12.0638 19.7653L9.34131 16.8347C9.53833 16.6517 9.77602 16.572 9.99577 16.572V20.572ZM12.0638 19.7653C12.6407 19.2294 12.9953 18.4696 12.9953 17.6434H8.99531C8.99531 17.3097 9.13933 17.0224 9.34131 16.8347L12.0638 19.7653ZM12.9953 17.6434C12.9953 16.8172 12.6407 16.0575 12.0638 15.5215L9.34131 18.4521C9.13933 18.2644 8.99531 17.9771 8.99531 17.6434H12.9953ZM12.0638 15.5215C11.4919 14.9902 10.7457 14.7148 9.99577 14.7148V18.7148C9.77602 18.7148 9.53833 18.6351 9.34131 18.4521L12.0638 15.5215ZM9.99577 14.7148H3.99856V18.7148H9.99577V14.7148ZM3.99856 14.7148C3.24862 14.7148 2.50245 14.9902 1.93054 15.5215L4.65302 18.4521C4.45601 18.6351 4.21831 18.7148 3.99856 18.7148V14.7148ZM1.93054 15.5215C1.35366 16.0575 0.999023 16.8172 0.999023 17.6434H4.99902C4.99902 17.9771 4.855 18.2644 4.65302 18.4521L1.93054 15.5215ZM0.999023 17.6434C0.999023 18.4696 1.35366 19.2294 1.93054 19.7653L4.65302 16.8347C4.855 17.0224 4.99902 17.3097 4.99902 17.6434H0.999023ZM1.93054 19.7653C2.50245 20.2966 3.24862 20.572 3.99856 20.572V16.572C4.21831 16.572 4.45601 16.6517 4.65302 16.8347L1.93054 19.7653Z" fill="white" mask="url(#path-4-inside-2_238_26130)"/>
<mask id="path-6-inside-3_238_26130" fill="white">
<path d="M14.9935 20.4277H3.99856C3.73347 20.4277 3.47923 20.5256 3.29178 20.6997C3.10433 20.8738 2.99902 21.11 2.99902 21.3563C2.99902 21.6026 3.10433 21.8388 3.29178 22.0129C3.47923 22.187 3.73347 22.2849 3.99856 22.2849H14.9935C15.2585 22.2849 15.5128 22.187 15.7002 22.0129C15.8877 21.8388 15.993 21.6026 15.993 21.3563C15.993 21.11 15.8877 20.8738 15.7002 20.6997C15.5128 20.5256 15.2585 20.4277 14.9935 20.4277Z"/>
</mask>
<path d="M14.9935 18.4277H3.99856V22.4277H14.9935V18.4277ZM3.99856 18.4277C3.24862 18.4277 2.50245 18.7031 1.93054 19.2344L4.65302 22.165C4.45601 22.348 4.21831 22.4277 3.99856 22.4277V18.4277ZM1.93054 19.2344C1.35366 19.7704 0.999023 20.5301 0.999023 21.3563H4.99902C4.99902 21.69 4.855 21.9773 4.65302 22.165L1.93054 19.2344ZM0.999023 21.3563C0.999023 22.1825 1.35366 22.9423 1.93054 23.4782L4.65302 20.5476C4.855 20.7353 4.99902 21.0226 4.99902 21.3563H0.999023ZM1.93054 23.4782C2.50245 24.0095 3.24862 24.2849 3.99856 24.2849V20.2849C4.21831 20.2849 4.45601 20.3646 4.65302 20.5476L1.93054 23.4782ZM3.99856 24.2849H14.9935V20.2849H3.99856V24.2849ZM14.9935 24.2849C15.7434 24.2849 16.4896 24.0095 17.0615 23.4782L14.339 20.5476C14.536 20.3646 14.7737 20.2849 14.9935 20.2849V24.2849ZM17.0615 23.4782C17.6384 22.9423 17.993 22.1825 17.993 21.3563H13.993C13.993 21.0226 14.137 20.7353 14.339 20.5476L17.0615 23.4782ZM17.993 21.3563C17.993 20.5301 17.6384 19.7704 17.0615 19.2344L14.339 22.165C14.137 21.9773 13.993 21.69 13.993 21.3563H17.993ZM17.0615 19.2344C16.4896 18.7031 15.7434 18.4277 14.9935 18.4277V22.4277C14.7737 22.4277 14.536 22.348 14.339 22.165L17.0615 19.2344Z" fill="white" mask="url(#path-6-inside-3_238_26130)"/>
</svg>
