<svg width="28" height="28" viewBox="0 0 28 28" fill="none" xmlns="http://www.w3.org/2000/svg">
<path fill-rule="evenodd" clip-rule="evenodd" d="M8.26327 20.2034C8.0808 20.0209 7.78587 20.0209 7.6034 20.2034L7 20.8068L6.3966 20.2034C6.21413 20.0209 5.9192 20.0209 5.73673 20.2034C5.55427 20.3859 5.55427 20.6808 5.73673 20.8633L6.34013 21.4667L5.73673 22.0701C5.55427 22.2525 5.55427 22.5475 5.73673 22.7299C5.82773 22.8209 5.9472 22.8667 6.06667 22.8667C6.18613 22.8667 6.3056 22.8209 6.3966 22.7299L7 22.1265L7.6034 22.7299C7.6944 22.8209 7.81387 22.8667 7.93333 22.8667C8.0528 22.8667 8.17227 22.8209 8.26327 22.7299C8.44573 22.5475 8.44573 22.2525 8.26327 22.0701L7.65987 21.4667L8.26327 20.8633C8.44573 20.6808 8.44573 20.3859 8.26327 20.2034ZM12.9299 20.2034C12.7475 20.0209 12.4525 20.0209 12.2701 20.2034L11.6667 20.8068L11.0633 20.2034C10.8808 20.0209 10.5859 20.0209 10.4034 20.2034C10.2209 20.3859 10.2209 20.6808 10.4034 20.8633L11.0068 21.4667L10.4034 22.0701C10.2209 22.2525 10.2209 22.5475 10.4034 22.7299C10.4944 22.8209 10.6139 22.8667 10.7333 22.8667C10.8528 22.8667 10.9723 22.8209 11.0633 22.7299L11.6667 22.1265L12.2701 22.7299C12.3611 22.8209 12.4805 22.8667 12.6 22.8667C12.7195 22.8667 12.8389 22.8209 12.9299 22.7299C13.1124 22.5475 13.1124 22.2525 12.9299 22.0701L12.3265 21.4667L12.9299 20.8633C13.1124 20.6808 13.1124 20.3859 12.9299 20.2034ZM22.2633 15.5367C22.0808 15.3543 21.7859 15.3543 21.6034 15.5367L21 16.1401L20.3966 15.5367C20.2141 15.3543 19.9192 15.3543 19.7367 15.5367C19.5543 15.7192 19.5543 16.0141 19.7367 16.1966L20.3401 16.8L19.7367 17.4034C19.5543 17.5859 19.5543 17.8808 19.7367 18.0633C19.8277 18.1543 19.9472 18.2 20.0667 18.2C20.1861 18.2 20.3056 18.1543 20.3966 18.0633L21 17.4599L21.6034 18.0633C21.6944 18.1543 21.8139 18.2 21.9333 18.2C22.0528 18.2 22.1723 18.1543 22.2633 18.0633C22.4457 17.8808 22.4457 17.5859 22.2633 17.4034L21.6599 16.8L22.2633 16.1966C22.4457 16.0141 22.4457 15.7192 22.2633 15.5367ZM17.5966 10.8701C17.4141 10.6876 17.1192 10.6876 16.9367 10.8701L16.3333 11.4735L15.7299 10.8701C15.5475 10.6876 15.2525 10.6876 15.0701 10.8701C14.8876 11.0525 14.8876 11.3475 15.0701 11.5299L15.6735 12.1333L15.0701 12.7367C14.8876 12.9192 14.8876 13.2141 15.0701 13.3966C15.1611 13.4876 15.2805 13.5333 15.4 13.5333C15.5195 13.5333 15.6389 13.4876 15.7299 13.3966L16.3333 12.7932L16.9367 13.3966C17.0277 13.4876 17.1472 13.5333 17.2667 13.5333C17.3861 13.5333 17.5056 13.4876 17.5966 13.3966C17.7791 13.2141 17.7791 12.9192 17.5966 12.7367L16.9932 12.1333L17.5966 11.5299C17.7791 11.3475 17.7791 11.0525 17.5966 10.8701ZM20.5333 12.6H21.4667V11.6667H20.5333V12.6ZM22.4 13.0667C22.4 13.3243 22.1909 13.5333 21.9333 13.5333H20.0667C19.8091 13.5333 19.6 13.3243 19.6 13.0667V11.2C19.6 10.9424 19.8091 10.7333 20.0667 10.7333H21.9333C22.1909 10.7333 22.4 10.9424 22.4 11.2V13.0667ZM15.8667 21.9333H16.8V21H15.8667V21.9333ZM17.7333 20.5333V22.4C17.7333 22.6576 17.5243 22.8667 17.2667 22.8667H15.4C15.1424 22.8667 14.9333 22.6576 14.9333 22.4V20.5333C14.9333 20.2757 15.1424 20.0667 15.4 20.0667H17.2667C17.5243 20.0667 17.7333 20.2757 17.7333 20.5333ZM15.8667 17.2667H16.8V16.3333H15.8667V17.2667ZM17.7333 17.7333C17.7333 17.9909 17.5243 18.2 17.2667 18.2H15.4C15.1424 18.2 14.9333 17.9909 14.9333 17.7333V15.8667C14.9333 15.6091 15.1424 15.4 15.4 15.4H17.2667C17.5243 15.4 17.7333 15.6091 17.7333 15.8667V17.7333ZM11.2 17.2667H12.1333V16.3333H11.2V17.2667ZM13.0667 17.7333C13.0667 17.9909 12.8576 18.2 12.6 18.2H10.7333C10.4757 18.2 10.2667 17.9909 10.2667 17.7333V15.8667C10.2667 15.6091 10.4757 15.4 10.7333 15.4H12.6C12.8576 15.4 13.0667 15.6091 13.0667 15.8667V17.7333ZM11.2 12.6H12.1333V11.6667H11.2V12.6ZM13.0667 13.0667C13.0667 13.3243 12.8576 13.5333 12.6 13.5333H10.7333C10.4757 13.5333 10.2667 13.3243 10.2667 13.0667V11.2C10.2667 10.9424 10.4757 10.7333 10.7333 10.7333H12.6C12.8576 10.7333 13.0667 10.9424 13.0667 11.2V13.0667ZM6.53333 17.2667H7.46667V16.3333H6.53333V17.2667ZM8.4 17.7333C8.4 17.9909 8.19093 18.2 7.93333 18.2H6.06667C5.80907 18.2 5.6 17.9909 5.6 17.7333V15.8667C5.6 15.6091 5.80907 15.4 6.06667 15.4H7.93333C8.19093 15.4 8.4 15.6091 8.4 15.8667V17.7333ZM6.53333 12.6H7.46667V11.6667H6.53333V12.6ZM8.4 13.0667C8.4 13.3243 8.19093 13.5333 7.93333 13.5333H6.06667C5.80907 13.5333 5.6 13.3243 5.6 13.0667V11.2C5.6 10.9424 5.80907 10.7333 6.06667 10.7333H7.93333C8.19093 10.7333 8.4 10.9424 8.4 11.2V13.0667ZM20.5333 3.26667C20.5333 3.5238 20.7429 3.73333 21 3.73333C21.2571 3.73333 21.4667 3.5238 21.4667 3.26667V1.4C21.4667 1.14287 21.2571 0.933333 21 0.933333C20.7429 0.933333 20.5333 1.14287 20.5333 1.4V3.26667ZM19.6 3.26667V1.4C19.6 0.628133 20.2281 0 21 0C21.7719 0 22.4 0.628133 22.4 1.4V3.26667C22.4 4.03853 21.7719 4.66667 21 4.66667C20.2281 4.66667 19.6 4.03853 19.6 3.26667ZM15.8667 3.26667C15.8667 3.5238 16.0762 3.73333 16.3333 3.73333C16.5905 3.73333 16.8 3.5238 16.8 3.26667V1.4C16.8 1.14287 16.5905 0.933333 16.3333 0.933333C16.0762 0.933333 15.8667 1.14287 15.8667 1.4V3.26667ZM14.9333 3.26667V1.4C14.9333 0.628133 15.5615 0 16.3333 0C17.1052 0 17.7333 0.628133 17.7333 1.4V3.26667C17.7333 4.03853 17.1052 4.66667 16.3333 4.66667C15.5615 4.66667 14.9333 4.03853 14.9333 3.26667ZM11.2 3.26667C11.2 3.5238 11.4095 3.73333 11.6667 3.73333C11.9238 3.73333 12.1333 3.5238 12.1333 3.26667V1.4C12.1333 1.14287 11.9238 0.933333 11.6667 0.933333C11.4095 0.933333 11.2 1.14287 11.2 1.4V3.26667ZM10.2667 3.26667V1.4C10.2667 0.628133 10.8948 0 11.6667 0C12.4385 0 13.0667 0.628133 13.0667 1.4V3.26667C13.0667 4.03853 12.4385 4.66667 11.6667 4.66667C10.8948 4.66667 10.2667 4.03853 10.2667 3.26667ZM6.53333 3.26667C6.53333 3.5238 6.74287 3.73333 7 3.73333C7.25713 3.73333 7.46667 3.5238 7.46667 3.26667V1.4C7.46667 1.14287 7.25713 0.933333 7 0.933333C6.74287 0.933333 6.53333 1.14287 6.53333 1.4V3.26667ZM5.6 3.26667V1.4C5.6 0.628133 6.22813 0 7 0C7.77187 0 8.4 0.628133 8.4 1.4V3.26667C8.4 4.03853 7.77187 4.66667 7 4.66667C6.22813 4.66667 5.6 4.03853 5.6 3.26667ZM22.5367 25.3367C22.3543 25.5192 22.3543 25.8141 22.5367 25.9966C22.6277 26.0876 22.7472 26.1333 22.8667 26.1333C22.9861 26.1333 23.1056 26.0876 23.1966 25.9966L25.9966 23.1966C26.0843 23.1093 26.1333 22.9903 26.1333 22.8667V7.93333C26.1333 7.67573 25.9243 7.46667 25.6667 7.46667H2.33333C2.07573 7.46667 1.86667 7.67573 1.86667 7.93333V24.2667C1.86667 25.2961 2.70387 26.1333 3.73333 26.1333H21C21.2576 26.1333 21.4667 25.9243 21.4667 25.6667V22.8667C21.4667 22.6553 21.6748 22.4 21.9333 22.4H23.8C24.0576 22.4 24.2667 22.1909 24.2667 21.9333C24.2667 21.6757 24.0576 21.4667 23.8 21.4667H21.9333C21.1876 21.4667 20.5333 22.1209 20.5333 22.8667V25.2H3.73333C3.2186 25.2 2.8 24.7814 2.8 24.2667V8.4H25.2V22.6735L22.5367 25.3367ZM25.6667 0.933333H23.8C23.5424 0.933333 23.3333 1.1424 23.3333 1.4C23.3333 1.6576 23.5424 1.86667 23.8 1.86667H25.6667C26.3471 1.86667 27.0667 2.58627 27.0667 3.26667V25.6667C27.0667 26.3471 26.3471 27.0667 25.6667 27.0667H2.33333C1.65293 27.0667 0.933333 26.3471 0.933333 25.6667V6.53333H25.6667C25.9243 6.53333 26.1333 6.32427 26.1333 6.06667C26.1333 5.80907 25.9243 5.6 25.6667 5.6H0.466667C0.209067 5.6 0 5.80907 0 6.06667V25.6667C0 26.866 1.134 28 2.33333 28H25.6667C26.866 28 28 26.866 28 25.6667V3.26667C28 2.06733 26.866 0.933333 25.6667 0.933333ZM0 4.2V3.26667C0 2.06733 1.134 0.933333 2.33333 0.933333H4.2C4.4576 0.933333 4.66667 1.1424 4.66667 1.4C4.66667 1.6576 4.4576 1.86667 4.2 1.86667H2.33333C1.65293 1.86667 0.933333 2.58627 0.933333 3.26667V4.2C0.933333 4.4576 0.724267 4.66667 0.466667 4.66667C0.209067 4.66667 0 4.4576 0 4.2Z" fill="white"/>
</svg>
